<?xml version="1.0" encoding="UTF-8" standalone="no"?>
<!-- Created with Inkscape (http://www.inkscape.org/) -->

<svg
   version="1.1"
   id="svg2"
   width="246.22667"
   height="246.42667"
   viewBox="0 0 246.22667 246.42667"
   sodipodi:docname="Bildmarke_nw_sRGB.eps"
   xmlns:inkscape="http://www.inkscape.org/namespaces/inkscape"
   xmlns:sodipodi="http://sodipodi.sourceforge.net/DTD/sodipodi-0.dtd"
   xmlns="http://www.w3.org/2000/svg"
   xmlns:svg="http://www.w3.org/2000/svg">
  <defs
     id="defs6" />
  <sodipodi:namedview
     id="namedview4"
     pagecolor="#ffffff"
     bordercolor="#000000"
     borderopacity="0.25"
     inkscape:showpageshadow="2"
     inkscape:pageopacity="0.0"
     inkscape:pagecheckerboard="0"
     inkscape:deskcolor="#d1d1d1" />
  <g
     id="g8"
     inkscape:groupmode="layer"
     inkscape:label="ink_ext_XXXXXX"
     transform="matrix(1.3333333,0,0,-1.3333333,0,246.42667)">
    <g
       id="g10"
       transform="scale(0.1)">
      <path
         d="m 1485.29,1380.11 c 108.93,-248.16 -93.96,-676.571 -247.52,-676.571 -50.71,0 -84.56,41.102 -75.62,91.801 l 82.23,466.39 -152.1,-29.57 -77.03,-436.82 c -8.94,-50.699 -57.289,-91.801 -107.992,-91.801 -50.703,0 -84.563,41.102 -75.621,91.801 l 45.328,257.07 c 23.246,131.83 -64.781,238.7 -196.613,238.7 -131.832,0 -257.547,-106.87 -280.793,-238.7 l -82.235,-466.39 152.106,29.57 77.023,436.82 c 8.942,50.7 57.293,91.81 107.996,91.81 50.707,0 84.563,-41.11 75.621,-91.81 L 684.742,795.34 C 661.5,663.512 749.523,556.641 881.355,556.641 c 64.161,0 126.835,25.359 176.985,66.55 35.64,-41.191 89.37,-66.55 153.53,-66.55 288.36,0 558.46,512.309 396.54,878.189 -108.73,245.68 -384.76,413.36 -668.258,413.36 -246.886,0 -480.679,-96.15 -658.308,-270.73 C 104.504,1403.16 4.46094,1171.05 0.144531,923.875 -4.16797,676.711 87.7734,444.59 259.027,270.301 430.285,95.9883 660.723,0 907.895,0 1155.07,0 1388.86,95.9883 1566.2,270.301 c 167.85,164.961 266.51,381.308 280.51,612.941 L 1703.9,855.488 C 1684.86,671.82 1602.44,500.5 1468.94,369.281 1318.45,221.379 1120.08,139.93 910.344,139.93 c -209.739,0 -405.27,81.449 -550.594,229.351 -145.316,147.899 -223.332,344.86 -219.672,554.594 3.664,209.735 88.551,406.695 239.035,554.585 150.727,148.14 349.106,229.72 558.598,229.72 229.929,0 462.099,-133.34 547.579,-328.07"
         style="fill:#9f1453;fill-opacity:1;fill-rule:nonzero;stroke:none"
         id="path12" />
    </g>
  </g>
</svg>
